<mxfile host="app.diagrams.net" agent="Mozilla/5.0 (X11; Linux x86_64) AppleWebKit/537.36 (KHTML, like Gecko) Chrome/138.0.0.0 Safari/537.36" version="28.2.3">
  <diagram name="第 1 页" id="qFQFJwMu1FN717Uub-w1">
    <mxGraphModel dx="2143" dy="1159" grid="1" gridSize="10" guides="1" tooltips="1" connect="1" arrows="1" fold="1" page="1" pageScale="1" pageWidth="2339" pageHeight="3300" math="0" shadow="0">
      <root>
        <mxCell id="0" />
        <mxCell id="1" parent="0" />
        <mxCell id="BzUi3YhWm0vWecap3dS3-1" style="edgeStyle=orthogonalEdgeStyle;rounded=0;orthogonalLoop=1;jettySize=auto;html=1;exitX=0.5;exitY=1;exitDx=0;exitDy=0;entryX=0.5;entryY=0;entryDx=0;entryDy=0;fontFamily=Helvetica;fontSize=12;fontColor=default;" parent="1" source="BzUi3YhWm0vWecap3dS3-2" target="BzUi3YhWm0vWecap3dS3-4" edge="1">
          <mxGeometry relative="1" as="geometry" />
        </mxCell>
        <mxCell id="BzUi3YhWm0vWecap3dS3-2" value="MPI Application" style="rounded=1;whiteSpace=wrap;html=1;fillColor=none;" parent="1" vertex="1">
          <mxGeometry x="871" y="150" width="180" height="50" as="geometry" />
        </mxCell>
        <mxCell id="BzUi3YhWm0vWecap3dS3-3" style="edgeStyle=orthogonalEdgeStyle;rounded=0;orthogonalLoop=1;jettySize=auto;html=1;exitX=0.5;exitY=1;exitDx=0;exitDy=0;entryX=0.5;entryY=0;entryDx=0;entryDy=0;fontFamily=Helvetica;fontSize=12;fontColor=default;" parent="1" source="BzUi3YhWm0vWecap3dS3-4" target="BzUi3YhWm0vWecap3dS3-6" edge="1">
          <mxGeometry relative="1" as="geometry" />
        </mxCell>
        <mxCell id="BzUi3YhWm0vWecap3dS3-4" value="MPI_Recv" style="rounded=1;whiteSpace=wrap;html=1;fillColor=none;" parent="1" vertex="1">
          <mxGeometry x="871" y="220" width="180" height="50" as="geometry" />
        </mxCell>
        <mxCell id="BzUi3YhWm0vWecap3dS3-5" style="edgeStyle=orthogonalEdgeStyle;rounded=0;orthogonalLoop=1;jettySize=auto;html=1;exitX=0.5;exitY=1;exitDx=0;exitDy=0;entryX=0.5;entryY=0;entryDx=0;entryDy=0;fontFamily=Helvetica;fontSize=12;fontColor=default;" parent="1" source="BzUi3YhWm0vWecap3dS3-6" target="BzUi3YhWm0vWecap3dS3-8" edge="1">
          <mxGeometry relative="1" as="geometry" />
        </mxCell>
        <mxCell id="BzUi3YhWm0vWecap3dS3-6" value="PML/ob1" style="rounded=1;whiteSpace=wrap;html=1;fillColor=none;" parent="1" vertex="1">
          <mxGeometry x="871" y="290" width="180" height="50" as="geometry" />
        </mxCell>
        <mxCell id="BzUi3YhWm0vWecap3dS3-7" style="edgeStyle=orthogonalEdgeStyle;rounded=0;orthogonalLoop=1;jettySize=auto;html=1;exitX=0.5;exitY=1;exitDx=0;exitDy=0;entryX=0.5;entryY=0;entryDx=0;entryDy=0;fontFamily=Helvetica;fontSize=12;fontColor=default;" parent="1" source="BzUi3YhWm0vWecap3dS3-8" target="BzUi3YhWm0vWecap3dS3-9" edge="1">
          <mxGeometry relative="1" as="geometry" />
        </mxCell>
        <mxCell id="BzUi3YhWm0vWecap3dS3-8" value="OPAL/BTL" style="rounded=1;whiteSpace=wrap;html=1;fillColor=none;" parent="1" vertex="1">
          <mxGeometry x="871" y="360" width="180" height="50" as="geometry" />
        </mxCell>
        <mxCell id="BzUi3YhWm0vWecap3dS3-9" value="BTL/sm (shared memory)" style="rounded=1;whiteSpace=wrap;html=1;fillColor=none;" parent="1" vertex="1">
          <mxGeometry x="871" y="430" width="180" height="50" as="geometry" />
        </mxCell>
        <mxCell id="BzUi3YhWm0vWecap3dS3-10" style="edgeStyle=orthogonalEdgeStyle;rounded=0;orthogonalLoop=1;jettySize=auto;html=1;exitX=0.5;exitY=1;exitDx=0;exitDy=0;entryX=0.5;entryY=0;entryDx=0;entryDy=0;" parent="1" source="BzUi3YhWm0vWecap3dS3-11" target="BzUi3YhWm0vWecap3dS3-12" edge="1">
          <mxGeometry relative="1" as="geometry" />
        </mxCell>
        <mxCell id="BzUi3YhWm0vWecap3dS3-11" value="btl_progress" style="rounded=1;whiteSpace=wrap;html=1;fillColor=none;" parent="1" vertex="1">
          <mxGeometry x="870" y="500" width="180" height="50" as="geometry" />
        </mxCell>
        <mxCell id="BzUi3YhWm0vWecap3dS3-12" value="&amp;nbsp;mca_btl_sm_component_progress" style="rounded=1;whiteSpace=wrap;html=1;fillColor=none;" parent="1" vertex="1">
          <mxGeometry x="871" y="570" width="180" height="50" as="geometry" />
        </mxCell>
        <mxCell id="BzUi3YhWm0vWecap3dS3-13" style="edgeStyle=orthogonalEdgeStyle;rounded=0;orthogonalLoop=1;jettySize=auto;html=1;exitX=0.5;exitY=1;exitDx=0;exitDy=0;entryX=0.509;entryY=-0.02;entryDx=0;entryDy=0;entryPerimeter=0;" parent="1" source="BzUi3YhWm0vWecap3dS3-9" target="BzUi3YhWm0vWecap3dS3-11" edge="1">
          <mxGeometry relative="1" as="geometry" />
        </mxCell>
        <mxCell id="BzUi3YhWm0vWecap3dS3-20" style="edgeStyle=orthogonalEdgeStyle;rounded=0;orthogonalLoop=1;jettySize=auto;html=1;exitX=0.5;exitY=1;exitDx=0;exitDy=0;entryX=0.5;entryY=0;entryDx=0;entryDy=0;" parent="1" source="BzUi3YhWm0vWecap3dS3-16" target="BzUi3YhWm0vWecap3dS3-17" edge="1">
          <mxGeometry relative="1" as="geometry" />
        </mxCell>
        <mxCell id="BzUi3YhWm0vWecap3dS3-24" value="No" style="edgeLabel;html=1;align=center;verticalAlign=middle;resizable=0;points=[];" parent="BzUi3YhWm0vWecap3dS3-20" vertex="1" connectable="0">
          <mxGeometry x="-0.3889" y="-3" relative="1" as="geometry">
            <mxPoint as="offset" />
          </mxGeometry>
        </mxCell>
        <mxCell id="BzUi3YhWm0vWecap3dS3-21" style="edgeStyle=orthogonalEdgeStyle;rounded=0;orthogonalLoop=1;jettySize=auto;html=1;exitX=1;exitY=0.5;exitDx=0;exitDy=0;entryX=0;entryY=0.5;entryDx=0;entryDy=0;" parent="1" source="BzUi3YhWm0vWecap3dS3-16" target="BzUi3YhWm0vWecap3dS3-18" edge="1">
          <mxGeometry relative="1" as="geometry" />
        </mxCell>
        <mxCell id="BzUi3YhWm0vWecap3dS3-23" value="Yes" style="edgeLabel;html=1;align=center;verticalAlign=middle;resizable=0;points=[];" parent="BzUi3YhWm0vWecap3dS3-21" vertex="1" connectable="0">
          <mxGeometry x="-0.4322" relative="1" as="geometry">
            <mxPoint as="offset" />
          </mxGeometry>
        </mxCell>
        <mxCell id="BzUi3YhWm0vWecap3dS3-16" value="multiple threads?" style="rhombus;whiteSpace=wrap;html=1;fillColor=none;" parent="1" vertex="1">
          <mxGeometry x="290" y="130" width="180" height="80" as="geometry" />
        </mxCell>
        <mxCell id="BzUi3YhWm0vWecap3dS3-29" style="edgeStyle=orthogonalEdgeStyle;rounded=0;orthogonalLoop=1;jettySize=auto;html=1;exitX=0.5;exitY=1;exitDx=0;exitDy=0;entryX=0.5;entryY=0;entryDx=0;entryDy=0;" parent="1" source="BzUi3YhWm0vWecap3dS3-17" target="BzUi3YhWm0vWecap3dS3-25" edge="1">
          <mxGeometry relative="1" as="geometry" />
        </mxCell>
        <mxCell id="BzUi3YhWm0vWecap3dS3-17" value="check fastbox and progress" style="rounded=1;whiteSpace=wrap;html=1;fillColor=none;" parent="1" vertex="1">
          <mxGeometry x="290" y="240" width="180" height="50" as="geometry" />
        </mxCell>
        <mxCell id="BzUi3YhWm0vWecap3dS3-22" style="edgeStyle=orthogonalEdgeStyle;rounded=0;orthogonalLoop=1;jettySize=auto;html=1;exitX=0.5;exitY=1;exitDx=0;exitDy=0;entryX=1;entryY=0.5;entryDx=0;entryDy=0;" parent="1" source="BzUi3YhWm0vWecap3dS3-18" target="BzUi3YhWm0vWecap3dS3-17" edge="1">
          <mxGeometry relative="1" as="geometry" />
        </mxCell>
        <mxCell id="BzUi3YhWm0vWecap3dS3-18" value="lock" style="rounded=1;whiteSpace=wrap;html=1;fillColor=none;" parent="1" vertex="1">
          <mxGeometry x="520" y="152.5" width="80" height="35" as="geometry" />
        </mxCell>
        <mxCell id="BzUi3YhWm0vWecap3dS3-19" style="edgeStyle=orthogonalEdgeStyle;rounded=0;orthogonalLoop=1;jettySize=auto;html=1;exitX=0.5;exitY=1;exitDx=0;exitDy=0;" parent="1" source="BzUi3YhWm0vWecap3dS3-18" target="BzUi3YhWm0vWecap3dS3-18" edge="1">
          <mxGeometry relative="1" as="geometry" />
        </mxCell>
        <mxCell id="BzUi3YhWm0vWecap3dS3-30" style="edgeStyle=orthogonalEdgeStyle;rounded=0;orthogonalLoop=1;jettySize=auto;html=1;exitX=0.5;exitY=1;exitDx=0;exitDy=0;" parent="1" source="BzUi3YhWm0vWecap3dS3-25" target="BzUi3YhWm0vWecap3dS3-26" edge="1">
          <mxGeometry relative="1" as="geometry" />
        </mxCell>
        <mxCell id="BzUi3YhWm0vWecap3dS3-25" value="check fastbox and progress" style="rounded=1;whiteSpace=wrap;html=1;fillColor=none;" parent="1" vertex="1">
          <mxGeometry x="290" y="310" width="180" height="50" as="geometry" />
        </mxCell>
        <mxCell id="BzUi3YhWm0vWecap3dS3-31" style="edgeStyle=orthogonalEdgeStyle;rounded=0;orthogonalLoop=1;jettySize=auto;html=1;exitX=0.5;exitY=1;exitDx=0;exitDy=0;entryX=0.5;entryY=0;entryDx=0;entryDy=0;" parent="1" source="BzUi3YhWm0vWecap3dS3-26" target="BzUi3YhWm0vWecap3dS3-27" edge="1">
          <mxGeometry relative="1" as="geometry" />
        </mxCell>
        <mxCell id="BzUi3YhWm0vWecap3dS3-26" value="poll fifo" style="rounded=1;whiteSpace=wrap;html=1;fillColor=none;" parent="1" vertex="1">
          <mxGeometry x="290" y="380" width="180" height="50" as="geometry" />
        </mxCell>
        <mxCell id="BzUi3YhWm0vWecap3dS3-27" value="unlock" style="rounded=1;whiteSpace=wrap;html=1;fillColor=none;" parent="1" vertex="1">
          <mxGeometry x="340" y="450" width="80" height="35" as="geometry" />
        </mxCell>
        <mxCell id="BzUi3YhWm0vWecap3dS3-34" style="edgeStyle=orthogonalEdgeStyle;rounded=0;orthogonalLoop=1;jettySize=auto;html=1;exitX=0.5;exitY=1;exitDx=0;exitDy=0;entryX=0.5;entryY=0;entryDx=0;entryDy=0;" parent="1" source="BzUi3YhWm0vWecap3dS3-32" target="BzUi3YhWm0vWecap3dS3-33" edge="1">
          <mxGeometry relative="1" as="geometry" />
        </mxCell>
        <mxCell id="BzUi3YhWm0vWecap3dS3-32" value="fifo_count = 0" style="rounded=1;whiteSpace=wrap;html=1;fillColor=none;" parent="1" vertex="1">
          <mxGeometry x="290" y="550" width="180" height="50" as="geometry" />
        </mxCell>
        <mxCell id="BzUi3YhWm0vWecap3dS3-37" style="edgeStyle=orthogonalEdgeStyle;rounded=0;orthogonalLoop=1;jettySize=auto;html=1;exitX=1;exitY=0.5;exitDx=0;exitDy=0;" parent="1" source="BzUi3YhWm0vWecap3dS3-33" target="BzUi3YhWm0vWecap3dS3-36" edge="1">
          <mxGeometry relative="1" as="geometry" />
        </mxCell>
        <mxCell id="BzUi3YhWm0vWecap3dS3-74" value="No" style="edgeLabel;html=1;align=center;verticalAlign=middle;resizable=0;points=[];" parent="BzUi3YhWm0vWecap3dS3-37" vertex="1" connectable="0">
          <mxGeometry x="-0.7095" relative="1" as="geometry">
            <mxPoint as="offset" />
          </mxGeometry>
        </mxCell>
        <mxCell id="BzUi3YhWm0vWecap3dS3-40" style="edgeStyle=orthogonalEdgeStyle;rounded=0;orthogonalLoop=1;jettySize=auto;html=1;exitX=0.5;exitY=1;exitDx=0;exitDy=0;entryX=0.5;entryY=0;entryDx=0;entryDy=0;" parent="1" source="BzUi3YhWm0vWecap3dS3-33" target="BzUi3YhWm0vWecap3dS3-39" edge="1">
          <mxGeometry relative="1" as="geometry" />
        </mxCell>
        <mxCell id="BzUi3YhWm0vWecap3dS3-33" value="fifo_count &amp;lt; 32?" style="rhombus;whiteSpace=wrap;html=1;fillColor=none;" parent="1" vertex="1">
          <mxGeometry x="290" y="630" width="180" height="80" as="geometry" />
        </mxCell>
        <mxCell id="BzUi3YhWm0vWecap3dS3-36" value="return 1" style="rounded=1;whiteSpace=wrap;html=1;fillColor=none;" parent="1" vertex="1">
          <mxGeometry x="550" y="675" width="80" height="35" as="geometry" />
        </mxCell>
        <mxCell id="BzUi3YhWm0vWecap3dS3-41" style="edgeStyle=orthogonalEdgeStyle;rounded=0;orthogonalLoop=1;jettySize=auto;html=1;exitX=0.5;exitY=1;exitDx=0;exitDy=0;entryX=0.5;entryY=0;entryDx=0;entryDy=0;" parent="1" source="BzUi3YhWm0vWecap3dS3-39" edge="1">
          <mxGeometry relative="1" as="geometry">
            <mxPoint x="379.9999999999998" y="839.9999999999998" as="targetPoint" />
          </mxGeometry>
        </mxCell>
        <mxCell id="BzUi3YhWm0vWecap3dS3-47" value="Yes" style="edgeLabel;html=1;align=center;verticalAlign=middle;resizable=0;points=[];" parent="BzUi3YhWm0vWecap3dS3-41" vertex="1" connectable="0">
          <mxGeometry x="-0.4563" relative="1" as="geometry">
            <mxPoint as="offset" />
          </mxGeometry>
        </mxCell>
        <mxCell id="BzUi3YhWm0vWecap3dS3-39" value="read fifo success?" style="rhombus;whiteSpace=wrap;html=1;fillColor=none;" parent="1" vertex="1">
          <mxGeometry x="290" y="730" width="180" height="80" as="geometry" />
        </mxCell>
        <mxCell id="BzUi3YhWm0vWecap3dS3-52" value="return 0" style="rounded=1;whiteSpace=wrap;html=1;fillColor=none;" parent="1" vertex="1">
          <mxGeometry x="550" y="770" width="80" height="35" as="geometry" />
        </mxCell>
        <mxCell id="BzUi3YhWm0vWecap3dS3-54" style="edgeStyle=orthogonalEdgeStyle;rounded=0;orthogonalLoop=1;jettySize=auto;html=1;exitX=1;exitY=0.5;exitDx=0;exitDy=0;entryX=0.035;entryY=0.603;entryDx=0;entryDy=0;entryPerimeter=0;" parent="1" source="BzUi3YhWm0vWecap3dS3-39" target="BzUi3YhWm0vWecap3dS3-52" edge="1">
          <mxGeometry relative="1" as="geometry" />
        </mxCell>
        <mxCell id="BzUi3YhWm0vWecap3dS3-73" value="No" style="edgeLabel;html=1;align=center;verticalAlign=middle;resizable=0;points=[];" parent="BzUi3YhWm0vWecap3dS3-54" vertex="1" connectable="0">
          <mxGeometry x="-0.5009" relative="1" as="geometry">
            <mxPoint as="offset" />
          </mxGeometry>
        </mxCell>
        <mxCell id="BzUi3YhWm0vWecap3dS3-58" style="edgeStyle=orthogonalEdgeStyle;rounded=0;orthogonalLoop=1;jettySize=auto;html=1;exitX=0.5;exitY=1;exitDx=0;exitDy=0;entryX=0.5;entryY=0;entryDx=0;entryDy=0;" parent="1" source="BzUi3YhWm0vWecap3dS3-55" target="BzUi3YhWm0vWecap3dS3-57" edge="1">
          <mxGeometry relative="1" as="geometry" />
        </mxCell>
        <mxCell id="BzUi3YhWm0vWecap3dS3-59" value="No" style="edgeLabel;html=1;align=center;verticalAlign=middle;resizable=0;points=[];" parent="BzUi3YhWm0vWecap3dS3-58" vertex="1" connectable="0">
          <mxGeometry x="-0.4251" relative="1" as="geometry">
            <mxPoint as="offset" />
          </mxGeometry>
        </mxCell>
        <mxCell id="BzUi3YhWm0vWecap3dS3-62" style="edgeStyle=orthogonalEdgeStyle;rounded=0;orthogonalLoop=1;jettySize=auto;html=1;exitX=1;exitY=0.5;exitDx=0;exitDy=0;entryX=0;entryY=0.5;entryDx=0;entryDy=0;" parent="1" source="BzUi3YhWm0vWecap3dS3-55" target="BzUi3YhWm0vWecap3dS3-61" edge="1">
          <mxGeometry relative="1" as="geometry" />
        </mxCell>
        <mxCell id="BzUi3YhWm0vWecap3dS3-55" value="single copy?" style="rhombus;whiteSpace=wrap;html=1;fillColor=none;" parent="1" vertex="1">
          <mxGeometry x="290" y="950" width="180" height="80" as="geometry" />
        </mxCell>
        <mxCell id="BzUi3YhWm0vWecap3dS3-65" style="edgeStyle=orthogonalEdgeStyle;rounded=0;orthogonalLoop=1;jettySize=auto;html=1;exitX=0.5;exitY=1;exitDx=0;exitDy=0;entryX=0.5;entryY=0;entryDx=0;entryDy=0;" parent="1" source="BzUi3YhWm0vWecap3dS3-57" target="BzUi3YhWm0vWecap3dS3-64" edge="1">
          <mxGeometry relative="1" as="geometry" />
        </mxCell>
        <mxCell id="BzUi3YhWm0vWecap3dS3-57" value="recv callback(PML)" style="rounded=1;whiteSpace=wrap;html=1;fillColor=none;" parent="1" vertex="1">
          <mxGeometry x="290" y="1060" width="180" height="50" as="geometry" />
        </mxCell>
        <mxCell id="BzUi3YhWm0vWecap3dS3-63" style="edgeStyle=orthogonalEdgeStyle;rounded=0;orthogonalLoop=1;jettySize=auto;html=1;exitX=0.5;exitY=1;exitDx=0;exitDy=0;entryX=1;entryY=0.5;entryDx=0;entryDy=0;" parent="1" source="BzUi3YhWm0vWecap3dS3-61" target="BzUi3YhWm0vWecap3dS3-57" edge="1">
          <mxGeometry relative="1" as="geometry" />
        </mxCell>
        <mxCell id="BzUi3YhWm0vWecap3dS3-61" value="map memory address from endpoint to this process" style="rounded=1;whiteSpace=wrap;html=1;fillColor=none;" parent="1" vertex="1">
          <mxGeometry x="520" y="965" width="180" height="50" as="geometry" />
        </mxCell>
        <mxCell id="BzUi3YhWm0vWecap3dS3-76" style="edgeStyle=orthogonalEdgeStyle;rounded=0;orthogonalLoop=1;jettySize=auto;html=1;exitX=0.5;exitY=1;exitDx=0;exitDy=0;entryX=0.5;entryY=0;entryDx=0;entryDy=0;" parent="1" source="BzUi3YhWm0vWecap3dS3-64" target="BzUi3YhWm0vWecap3dS3-75" edge="1">
          <mxGeometry relative="1" as="geometry" />
        </mxCell>
        <mxCell id="BzUi3YhWm0vWecap3dS3-64" value="write back(with complete flag) to writing process" style="rounded=1;whiteSpace=wrap;html=1;fillColor=none;" parent="1" vertex="1">
          <mxGeometry x="290" y="1140" width="180" height="50" as="geometry" />
        </mxCell>
        <mxCell id="BzUi3YhWm0vWecap3dS3-68" style="edgeStyle=orthogonalEdgeStyle;rounded=0;orthogonalLoop=1;jettySize=auto;html=1;exitX=0.5;exitY=1;exitDx=0;exitDy=0;entryX=0.5;entryY=0;entryDx=0;entryDy=0;" parent="1" source="BzUi3YhWm0vWecap3dS3-66" target="BzUi3YhWm0vWecap3dS3-55" edge="1">
          <mxGeometry relative="1" as="geometry" />
        </mxCell>
        <mxCell id="BzUi3YhWm0vWecap3dS3-71" value="No" style="edgeLabel;html=1;align=center;verticalAlign=middle;resizable=0;points=[];" parent="BzUi3YhWm0vWecap3dS3-68" vertex="1" connectable="0">
          <mxGeometry x="-0.3473" y="-1" relative="1" as="geometry">
            <mxPoint as="offset" />
          </mxGeometry>
        </mxCell>
        <mxCell id="BzUi3YhWm0vWecap3dS3-70" style="edgeStyle=orthogonalEdgeStyle;rounded=0;orthogonalLoop=1;jettySize=auto;html=1;exitX=1;exitY=0.5;exitDx=0;exitDy=0;entryX=0;entryY=0.5;entryDx=0;entryDy=0;" parent="1" source="BzUi3YhWm0vWecap3dS3-66" target="BzUi3YhWm0vWecap3dS3-69" edge="1">
          <mxGeometry relative="1" as="geometry" />
        </mxCell>
        <mxCell id="BzUi3YhWm0vWecap3dS3-72" value="Yes" style="edgeLabel;html=1;align=center;verticalAlign=middle;resizable=0;points=[];" parent="BzUi3YhWm0vWecap3dS3-70" vertex="1" connectable="0">
          <mxGeometry x="-0.5819" y="-2" relative="1" as="geometry">
            <mxPoint as="offset" />
          </mxGeometry>
        </mxCell>
        <mxCell id="BzUi3YhWm0vWecap3dS3-66" value="complete fifo?" style="rhombus;whiteSpace=wrap;html=1;fillColor=none;" parent="1" vertex="1">
          <mxGeometry x="290" y="840" width="180" height="80" as="geometry" />
        </mxCell>
        <mxCell id="BzUi3YhWm0vWecap3dS3-69" value="des callback" style="rounded=1;whiteSpace=wrap;html=1;fillColor=none;" parent="1" vertex="1">
          <mxGeometry x="550" y="890" width="80" height="35" as="geometry" />
        </mxCell>
        <mxCell id="BzUi3YhWm0vWecap3dS3-77" style="edgeStyle=orthogonalEdgeStyle;rounded=0;orthogonalLoop=1;jettySize=auto;html=1;exitX=0.5;exitY=1;exitDx=0;exitDy=0;" parent="1" source="BzUi3YhWm0vWecap3dS3-75" target="BzUi3YhWm0vWecap3dS3-33" edge="1">
          <mxGeometry relative="1" as="geometry">
            <Array as="points">
              <mxPoint x="380" y="1290" />
              <mxPoint x="220" y="1290" />
              <mxPoint x="220" y="670" />
            </Array>
          </mxGeometry>
        </mxCell>
        <mxCell id="BzUi3YhWm0vWecap3dS3-75" value="fifo_count ++" style="rounded=1;whiteSpace=wrap;html=1;fillColor=none;" parent="1" vertex="1">
          <mxGeometry x="290" y="1220" width="180" height="50" as="geometry" />
        </mxCell>
      </root>
    </mxGraphModel>
  </diagram>
</mxfile>
